<?xml version="1.0" standalone="no"?><!DOCTYPE svg PUBLIC "-//W3C//DTD SVG 1.1//EN" "http://www.w3.org/Graphics/SVG/1.1/DTD/svg11.dtd"><svg t="1593080872213" class="icon" viewBox="0 0 1024 1024" version="1.1" xmlns="http://www.w3.org/2000/svg" p-id="958" xmlns:xlink="http://www.w3.org/1999/xlink" width="200" height="200"><defs><style type="text/css"></style></defs><path d="M977.408 208.896H323.072c-6.144 0-11.776 2.56-15.872 6.656L24.576 498.176c-8.704 8.704-8.704 23.04 0 31.744L307.2 812.032c4.096 4.096 9.728 6.656 15.872 6.656H977.92c12.288 0 22.528-10.24 22.528-22.528V230.912c-0.512-12.288-10.24-22.016-23.04-22.016z m-157.696 445.44c6.656 6.656 6.656 17.92 0 24.576-6.656 6.656-17.408 6.656-24.576 0l-135.68-135.68-135.68 135.68c-6.656 6.656-17.408 6.656-24.576 0-6.656-6.656-6.656-17.408 0-24.576l135.68-135.68-135.68-135.68c-6.656-6.656-6.656-17.408 0-24.576 6.656-6.656 17.408-6.656 24.576 0l135.68 135.68L795.136 358.4c6.656-6.656 17.408-6.656 24.576 0 6.656 6.656 6.656 17.408 0 24.576l-135.68 135.68 135.68 135.68z" fill="#707070" p-id="959"></path></svg>