<?xml version="1.0" standalone="no"?><!DOCTYPE svg PUBLIC "-//W3C//DTD SVG 1.1//EN" "http://www.w3.org/Graphics/SVG/1.1/DTD/svg11.dtd"><svg t="1593094189265" class="icon" viewBox="0 0 1024 1024" version="1.1" xmlns="http://www.w3.org/2000/svg" p-id="2548" xmlns:xlink="http://www.w3.org/1999/xlink" width="200" height="200"><defs><style type="text/css"></style></defs><path d="M827.076923 512c-21.005128 0-39.384615 18.379487-39.384615 39.384615v199.548718c0 63.015385-13.128205 76.14359-78.769231 76.14359h78.769231v-73.517949 73.517949H157.538462h78.76923c-60.389744 0-76.14359-13.128205-78.76923-60.389744V238.933333v36.758975c0-60.389744 10.502564-76.14359 68.266666-78.769231h519.876923c23.630769 0 42.010256-18.379487 42.010257-39.384615s-18.379487-39.384615-39.384616-39.384616H152.287179C112.902564 120.779487 78.769231 154.912821 78.769231 196.923077v632.779487c2.625641 42.010256 36.758974 76.14359 78.769231 76.14359H787.692308c44.635897 0 78.769231-34.133333 78.76923-78.769231V551.384615c0-23.630769-18.379487-39.384615-39.384615-39.384615zM157.538462 196.923077h23.630769H157.538462z m771.938461 13.128205c-21.005128-21.005128-55.138462-21.005128-78.769231 0L409.6 656.410256c-21.005128 21.005128-21.005128 55.138462 0 78.769231 21.005128 21.005128 55.138462 21.005128 78.769231 0l441.107692-446.358974c21.005128-21.005128 21.005128-57.764103 0-78.769231z" p-id="2549"></path></svg>